<svg xmlns="http://www.w3.org/2000/svg" width="111.21" height="88" viewBox="0 0 111.21 88">
  <g id="Group_12" data-name="Group 12" transform="translate(-370 -95)">
    <text id="Hala" transform="translate(370 132)" fill="#262626" font-size="35" font-family="Roboto-Bold, Roboto" font-weight="700"><tspan x="0" y="0">Hala</tspan></text>
    <text id="Stats" transform="translate(399 174)" fill="#262626" font-size="35" font-family="Roboto-Regular, Roboto"><tspan x="0" y="0">Stats</tspan></text>
    <g id="football" transform="translate(432.55 88.339)">
      <path id="Path_1" data-name="Path 1" d="M33.45,18.24a15.21,15.21,0,1,0,15.21,15.21A15.228,15.228,0,0,0,33.45,18.24ZM43.908,40.471H40.6a.585.585,0,0,1-.505-.293l-1.18-2.024a.585.585,0,0,1-.063-.439l1.087-4.382a.585.585,0,0,1,.34-.4l2.055-.87a.585.585,0,0,1,.61.1l3.044,2.619a.585.585,0,0,1,.2.531,12.779,12.779,0,0,1-1.776,4.876A.585.585,0,0,1,43.908,40.471Zm-19.341-8.4,2.055.87a.585.585,0,0,1,.34.4l1.087,4.382a.585.585,0,0,1-.063.439l-1.18,2.018a.585.585,0,0,1-.505.293H22.993a.585.585,0,0,1-.5-.279,12.779,12.779,0,0,1-1.776-4.876.585.585,0,0,1,.2-.531l3.044-2.619A.585.585,0,0,1,24.567,32.071Zm18.789-6.38-1.321,3.757a.585.585,0,0,1-.321.346l-2.163.916a.585.585,0,0,1-.6-.091l-4.114-3.451a.585.585,0,0,1-.212-.446V24.267a.585.585,0,0,1,.26-.486l3.132-2.087a.585.585,0,0,1,.56-.049,12.938,12.938,0,0,1,4.676,3.469A.585.585,0,0,1,43.356,25.691Zm-14.469-4,3.133,2.087a.585.585,0,0,1,.26.486v2.456a.585.585,0,0,1-.209.448l-4.114,3.451a.585.585,0,0,1-.6.091l-2.166-.918a.585.585,0,0,1-.324-.345l-1.321-3.757a.585.585,0,0,1,.11-.578,12.938,12.938,0,0,1,4.68-3.472A.585.585,0,0,1,28.887,21.694ZM30.153,45.64,28.71,42.006a.585.585,0,0,1,.038-.512l1.109-1.9a.585.585,0,0,1,.505-.293h6.175a.585.585,0,0,1,.505.293l1.11,1.9a.585.585,0,0,1,.039.512l-1.433,3.632a.585.585,0,0,1-.416.356,12.913,12.913,0,0,1-5.777,0A.585.585,0,0,1,30.153,45.64Z"/>
    </g>
  </g>
</svg>
